<svg xmlns="http://www.w3.org/2000/svg" viewBox="0 0 87.27 85.26"><defs><style>.cls-1{fill:#ff644e;}.cls-2{fill:#434343;fill-rule:evenodd;}</style></defs><title>random-shapes</title><g id="Layer_2" data-name="Layer 2"><rect class="cls-1" width="87.27" height="85.26"/></g><g id="Layer_1" data-name="Layer 1"><path class="cls-2" d="M11,0l5,20H6ZM53,31a3,3,0,1,0-3-3A3,3,0,0,0,53,31ZM0,72H40v4H0Zm0-8H31v4H0ZM20,48H40v4H20ZM0,56H40v4H0ZM63,31a3,3,0,0,0,0-6h0a3,3,0,0,0,0,6Zm10,0a3,3,0,1,0-3-3A3,3,0,0,0,73,31ZM53,41a3,3,0,1,0-3-3A3,3,0,0,0,53,41Zm10,0a3,3,0,0,0,0-6h0a3,3,0,0,0,0,6Zm10,0a3,3,0,1,0-3-3A3,3,0,0,0,73,41ZM43,41a3,3,0,1,0-3-3A3,3,0,0,0,43,41ZM15,33A5,5,0,0,0,5,33Zm10,0a5,5,0,0,1-10,0ZM56,5A5,5,0,0,0,46,5ZM66,5A5,5,0,0,1,56,5ZM63,51a3,3,0,0,0,0-6h0a3,3,0,0,0,0,6Zm10,0a3,3,0,1,0-3-3A3,3,0,0,0,73,51ZM21,0l5,20H16ZM64,64V60H60v4H56v4h4v4h4V68h4V64ZM36,13h4v4H36Zm4,4h4v4H40Zm-4,4h4v4H36Zm8-8h4v4H44Z" transform="translate(3.33 1.91)"/></g></svg>